<svg width="25" height="24" viewBox="0 0 25 24" fill="none" xmlns="http://www.w3.org/2000/svg">
<path opacity="0.2" d="M21.6667 12C21.6667 13.78 21.1388 15.5201 20.1499 17.0001C19.161 18.4802 17.7553 19.6337 16.1108 20.3149C14.4663 20.9961 12.6567 21.1743 10.9108 20.8271C9.16502 20.4798 7.56137 19.6226 6.3027 18.364C5.04403 17.1053 4.18686 15.5016 3.83959 13.7558C3.49233 12.01 3.67056 10.2004 4.35174 8.55585C5.03293 6.91131 6.18649 5.50571 7.66653 4.51677C9.14657 3.52784 10.8866 3 12.6667 3C15.0536 3 17.3428 3.94821 19.0306 5.63604C20.7184 7.32387 21.6667 9.61305 21.6667 12Z" fill="#828282"/>
<path d="M12.6667 2.25C10.7383 2.25 8.85323 2.82183 7.24985 3.89317C5.64647 4.96451 4.39679 6.48726 3.65884 8.26884C2.92088 10.0504 2.7278 12.0108 3.104 13.9021C3.48021 15.7934 4.40881 17.5307 5.77237 18.8943C7.13593 20.2579 8.87322 21.1865 10.7645 21.5627C12.6558 21.9389 14.6162 21.7458 16.3978 21.0078C18.1794 20.2699 19.7021 19.0202 20.7735 17.4168C21.8448 15.8134 22.4167 13.9284 22.4167 12C22.4139 9.41498 21.3858 6.93661 19.5579 5.10872C17.73 3.28084 15.2517 2.25273 12.6667 2.25ZM12.6667 20.25C11.035 20.25 9.43991 19.7661 8.08321 18.8596C6.7265 17.9531 5.66908 16.6646 5.04465 15.1571C4.42023 13.6496 4.25685 11.9908 4.57518 10.3905C4.89351 8.79016 5.67925 7.32015 6.83303 6.16637C7.98681 5.01259 9.45682 4.22685 11.0572 3.90852C12.6575 3.59019 14.3163 3.75357 15.8238 4.37799C17.3313 5.00242 18.6198 6.05984 19.5263 7.41655C20.4328 8.77325 20.9167 10.3683 20.9167 12C20.9142 14.1873 20.0442 16.2843 18.4976 17.8309C16.9509 19.3775 14.8539 20.2475 12.6667 20.25ZM18.6667 12C18.6667 12.1989 18.5876 12.3897 18.447 12.5303C18.3063 12.671 18.1156 12.75 17.9167 12.75H12.6667C12.4677 12.75 12.277 12.671 12.1363 12.5303C11.9957 12.3897 11.9167 12.1989 11.9167 12V6.75C11.9167 6.55109 11.9957 6.36032 12.1363 6.21967C12.277 6.07902 12.4677 6 12.6667 6C12.8656 6 13.0563 6.07902 13.197 6.21967C13.3376 6.36032 13.4167 6.55109 13.4167 6.75V11.25H17.9167C18.1156 11.25 18.3063 11.329 18.447 11.4697C18.5876 11.6103 18.6667 11.8011 18.6667 12Z" fill="#828282"/>
</svg>
