<svg width="52" height="52" viewBox="0 0 52 52" fill="none" xmlns="http://www.w3.org/2000/svg">
<path opacity="0.2" d="M45.5 26C45.5 29.8567 44.3563 33.6269 42.2137 36.8336C40.071 40.0404 37.0255 42.5397 33.4623 44.0156C29.8992 45.4916 25.9784 45.8777 22.1957 45.1253C18.4131 44.3729 14.9385 42.5157 12.2114 39.7886C9.4843 37.0615 7.62711 33.5869 6.8747 29.8043C6.12228 26.0216 6.50845 22.1008 7.98436 18.5377C9.46027 14.9745 11.9596 11.929 15.1664 9.78634C18.3731 7.64365 22.1433 6.5 26 6.5C31.1717 6.5 36.1316 8.55446 39.7886 12.2114C43.4455 15.8684 45.5 20.8283 45.5 26Z" fill="#2A6A9D"/>
<path d="M26 4.875C21.8219 4.875 17.7376 6.11396 14.2636 8.4352C10.7896 10.7564 8.08196 14.0557 6.48305 17.9158C4.88415 21.7759 4.46581 26.0234 5.28092 30.1213C6.09603 34.2191 8.10799 37.9832 11.0624 40.9376C14.0168 43.892 17.7809 45.904 21.8787 46.7191C25.9766 47.5342 30.2241 47.1159 34.0842 45.517C37.9443 43.918 41.2436 41.2104 43.5648 37.7364C45.886 34.2624 47.125 30.1781 47.125 26C47.1191 20.3991 44.8915 15.0293 40.9311 11.0689C36.9707 7.10848 31.6009 4.88091 26 4.875ZM26 43.875C22.4647 43.875 19.0087 42.8266 16.0692 40.8625C13.1297 38.8984 10.8386 36.1067 9.48566 32.8405C8.13275 29.5742 7.77876 25.9802 8.46847 22.5128C9.15818 19.0454 10.8606 15.8603 13.3605 13.3605C15.8603 10.8606 19.0454 9.15817 22.5128 8.46846C25.9802 7.77875 29.5742 8.13274 32.8405 9.48565C36.1067 10.8386 38.8984 13.1297 40.8625 16.0692C42.8267 19.0087 43.875 22.4647 43.875 26C43.8696 30.7391 41.9846 35.2825 38.6336 38.6336C35.2826 41.9846 30.7391 43.8696 26 43.875ZM34.125 30.0625C34.125 31.5709 33.5258 33.0176 32.4592 34.0842C31.3926 35.1508 29.9459 35.75 28.4375 35.75H27.625V37.375C27.625 37.806 27.4538 38.2193 27.1491 38.524C26.8443 38.8288 26.431 39 26 39C25.569 39 25.1557 38.8288 24.851 38.524C24.5462 38.2193 24.375 37.806 24.375 37.375V35.75H21.125C20.694 35.75 20.2807 35.5788 19.976 35.274C19.6712 34.9693 19.5 34.556 19.5 34.125C19.5 33.694 19.6712 33.2807 19.976 32.9759C20.2807 32.6712 20.694 32.5 21.125 32.5H28.4375C29.084 32.5 29.704 32.2432 30.1611 31.7861C30.6182 31.3289 30.875 30.709 30.875 30.0625C30.875 29.416 30.6182 28.796 30.1611 28.3389C29.704 27.8818 29.084 27.625 28.4375 27.625H23.5625C22.0541 27.625 20.6075 27.0258 19.5408 25.9592C18.4742 24.8926 17.875 23.4459 17.875 21.9375C17.875 20.4291 18.4742 18.9824 19.5408 17.9158C20.6075 16.8492 22.0541 16.25 23.5625 16.25H24.375V14.625C24.375 14.194 24.5462 13.7807 24.851 13.476C25.1557 13.1712 25.569 13 26 13C26.431 13 26.8443 13.1712 27.1491 13.476C27.4538 13.7807 27.625 14.194 27.625 14.625V16.25H30.875C31.306 16.25 31.7193 16.4212 32.0241 16.726C32.3288 17.0307 32.5 17.444 32.5 17.875C32.5 18.306 32.3288 18.7193 32.0241 19.024C31.7193 19.3288 31.306 19.5 30.875 19.5H23.5625C22.916 19.5 22.2961 19.7568 21.8389 20.2139C21.3818 20.671 21.125 21.291 21.125 21.9375C21.125 22.584 21.3818 23.204 21.8389 23.6611C22.2961 24.1182 22.916 24.375 23.5625 24.375H28.4375C29.9459 24.375 31.3926 24.9742 32.4592 26.0408C33.5258 27.1074 34.125 28.5541 34.125 30.0625Z" fill="#2A6A9D"/>
</svg>
