<svg width="52" height="53" viewBox="0 0 52 53" fill="none" xmlns="http://www.w3.org/2000/svg">
<path opacity="0.2" d="M47.125 26.5C47.125 29.09 43.5053 31.0443 42.5181 33.4749C41.5675 35.8185 42.8066 39.8204 40.9378 41.7251C39.0691 43.6298 35.1427 42.3669 32.8433 43.3358C30.4688 44.342 28.5391 48.0312 26 48.0312C23.4609 48.0312 21.5312 44.342 19.1567 43.3358C16.8573 42.3669 12.9309 43.6298 11.0622 41.7251C9.19344 39.8204 10.4325 35.8185 9.48187 33.4749C8.49469 31.0547 4.875 29.0879 4.875 26.5C4.875 23.9121 8.49469 21.9453 9.48187 19.5251C10.4325 17.1836 9.19344 13.1796 11.0622 11.2749C12.9309 9.37023 16.8594 10.6331 19.1567 9.66422C21.5414 8.65805 23.4609 4.96875 26 4.96875C28.5391 4.96875 30.4688 8.65805 32.8433 9.66422C35.1427 10.6331 39.0691 9.37023 40.9378 11.2749C42.8066 13.1796 41.5675 17.1815 42.5181 19.5251C43.5053 21.9557 47.125 23.9121 47.125 26.5Z" fill="#2A6A9D"/>
<path d="M45.8778 21.287C45.112 20.4713 44.3198 19.6307 44.0213 18.8916C43.745 18.2146 43.7287 17.0925 43.7125 16.0056C43.682 13.985 43.6495 11.6952 42.0875 10.1031C40.5255 8.51105 38.2789 8.47793 36.2964 8.44687C35.23 8.43031 34.1291 8.41375 33.4648 8.13219C32.7417 7.82785 31.915 7.02043 31.1147 6.23992C29.7131 4.8673 28.1206 3.3125 26 3.3125C23.8794 3.3125 22.2889 4.8673 20.8853 6.23992C20.085 7.02043 19.2603 7.82785 18.5352 8.13219C17.875 8.41375 16.77 8.43031 15.7036 8.44687C13.7211 8.47793 11.4745 8.51105 9.9125 10.1031C8.35047 11.6952 8.32812 13.985 8.2875 16.0056C8.27125 17.0925 8.255 18.2146 7.97875 18.8916C7.68016 19.6286 6.88797 20.4713 6.12219 21.287C4.77547 22.7155 3.25 24.3386 3.25 26.5C3.25 28.6614 4.77547 30.2825 6.12219 31.713C6.88797 32.5287 7.68016 33.3693 7.97875 34.1084C8.255 34.7854 8.27125 35.9075 8.2875 36.9944C8.31797 39.015 8.35047 41.3048 9.9125 42.8969C11.4745 44.4889 13.7211 44.5221 15.7036 44.5531C16.77 44.5697 17.8709 44.5863 18.5352 44.8678C19.2583 45.1721 20.085 45.9796 20.8853 46.7601C22.2869 48.1327 23.8794 49.6875 26 49.6875C28.1206 49.6875 29.7111 48.1327 31.1147 46.7601C31.915 45.9796 32.7397 45.1721 33.4648 44.8678C34.1291 44.5863 35.23 44.5697 36.2964 44.5531C38.2789 44.5221 40.5255 44.4889 42.0875 42.8969C43.6495 41.3048 43.682 39.015 43.7125 36.9944C43.7287 35.9075 43.745 34.7854 44.0213 34.1084C44.3198 33.3714 45.112 32.5287 45.8778 31.713C47.2245 30.2845 48.75 28.6614 48.75 26.5C48.75 24.3386 47.2245 22.7175 45.8778 21.287ZM43.5317 29.4212C42.5588 30.4564 41.5512 31.5267 41.017 32.8414C40.5052 34.1043 40.4828 35.5473 40.4625 36.9447C40.4422 38.3939 40.4198 39.9115 39.7881 40.5533C39.1564 41.1951 37.6777 41.2199 36.2477 41.2406C34.8766 41.2613 33.4608 41.2841 32.2217 41.8058C30.9319 42.3503 29.8817 43.3772 28.8661 44.3689C27.8505 45.3605 26.8125 46.375 26 46.375C25.1875 46.375 24.1414 45.3564 23.1339 44.3689C22.1264 43.3813 21.0681 42.3503 19.7783 41.8058C18.5392 41.2841 17.1234 41.2613 15.7523 41.2406C14.3305 41.2199 12.8416 41.1972 12.2119 40.5533C11.5822 39.9094 11.5578 38.4022 11.5375 36.9447C11.5172 35.5473 11.4948 34.1043 10.983 32.8414C10.4488 31.5267 9.44125 30.4564 8.46828 29.4212C7.49531 28.3861 6.5 27.3281 6.5 26.5C6.5 25.6719 7.49937 24.6057 8.46828 23.5788C9.43719 22.5519 10.4488 21.4733 10.983 20.1586C11.4948 18.8957 11.5172 17.4527 11.5375 16.0553C11.5578 14.6061 11.5802 13.0885 12.2119 12.4467C12.8436 11.8049 14.3223 11.7801 15.7523 11.7594C17.1234 11.7387 18.5392 11.7159 19.7783 11.1942C21.0681 10.6497 22.1183 9.62281 23.1339 8.63113C24.1495 7.63945 25.1875 6.625 26 6.625C26.8125 6.625 27.8586 7.64359 28.8661 8.63113C29.8736 9.61867 30.9319 10.6497 32.2217 11.1942C33.4608 11.7159 34.8766 11.7387 36.2477 11.7594C37.6695 11.7801 39.1584 11.8029 39.7881 12.4467C40.4178 13.0906 40.4422 14.5978 40.4625 16.0553C40.4828 17.4527 40.5052 18.8957 41.017 20.1586C41.5512 21.4733 42.5588 22.5436 43.5317 23.5788C44.5047 24.6139 45.5 25.6719 45.5 26.5C45.5 27.3281 44.5006 28.3943 43.5317 29.4212ZM35.2747 20.3595C35.4258 20.5133 35.5456 20.6959 35.6274 20.897C35.7092 21.0981 35.7513 21.3136 35.7513 21.5312C35.7513 21.7489 35.7092 21.9644 35.6274 22.1655C35.5456 22.3666 35.4258 22.5492 35.2747 22.703L23.8997 34.2968C23.7488 34.4508 23.5695 34.573 23.3723 34.6563C23.175 34.7397 22.9636 34.7826 22.75 34.7826C22.5364 34.7826 22.325 34.7397 22.1277 34.6563C21.9305 34.573 21.7512 34.4508 21.6003 34.2968L16.7253 29.328C16.4204 29.0173 16.2491 28.5958 16.2491 28.1562C16.2491 27.7167 16.4204 27.2952 16.7253 26.9845C17.0302 26.6737 17.4438 26.4991 17.875 26.4991C18.3062 26.4991 18.7198 26.6737 19.0247 26.9845L22.75 30.7835L32.9753 20.3595C33.1262 20.2055 33.3055 20.0833 33.5027 19.9999C33.7 19.9166 33.9114 19.8737 34.125 19.8737C34.3386 19.8737 34.55 19.9166 34.7473 19.9999C34.9445 20.0833 35.1238 20.2055 35.2747 20.3595Z" fill="#2A6A9D"/>
</svg>
