<svg width="25" height="24" viewBox="0 0 25 24" fill="none" xmlns="http://www.w3.org/2000/svg">
<path opacity="0.2" d="M20.5834 5.25V10.5C20.5834 19.5 12.3334 21.75 12.3334 21.75C12.3334 21.75 4.08337 19.5 4.08337 10.5V5.25C4.08337 5.05109 4.16239 4.86032 4.30304 4.71967C4.4437 4.57902 4.63446 4.5 4.83337 4.5H19.8334C20.0323 4.5 20.2231 4.57902 20.3637 4.71967C20.5044 4.86032 20.5834 5.05109 20.5834 5.25Z" fill="#D9B01A"/>
<path d="M11.5834 12.75V9C11.5834 8.80109 11.6624 8.61032 11.803 8.46967C11.9437 8.32902 12.1345 8.25 12.3334 8.25C12.5323 8.25 12.7231 8.32902 12.8637 8.46967C13.0044 8.61032 13.0834 8.80109 13.0834 9V12.75C13.0834 12.9489 13.0044 13.1397 12.8637 13.2803C12.7231 13.421 12.5323 13.5 12.3334 13.5C12.1345 13.5 11.9437 13.421 11.803 13.2803C11.6624 13.1397 11.5834 12.9489 11.5834 12.75ZM12.3334 17.25C12.5559 17.25 12.7734 17.184 12.9584 17.0604C13.1434 16.9368 13.2876 16.7611 13.3727 16.5555C13.4579 16.35 13.4802 16.1238 13.4368 15.9055C13.3933 15.6873 13.2862 15.4868 13.1289 15.3295C12.9715 15.1722 12.7711 15.065 12.5529 15.0216C12.3346 14.9782 12.1084 15.0005 11.9029 15.0856C11.6973 15.1708 11.5216 15.315 11.398 15.5C11.2744 15.685 11.2084 15.9025 11.2084 16.125C11.2084 16.4234 11.3269 16.7095 11.5379 16.9205C11.7489 17.1315 12.035 17.25 12.3334 17.25ZM21.3334 5.25V10.5C21.3334 15.4425 18.9409 18.4378 16.9337 20.0803C14.7718 21.8484 12.6212 22.4494 12.5274 22.4738C12.3985 22.5088 12.2626 22.5088 12.1337 22.4738C12.0399 22.4494 9.89212 21.8484 7.72744 20.0803C5.72587 18.4378 3.33337 15.4425 3.33337 10.5V5.25C3.33337 4.85218 3.49141 4.47064 3.77271 4.18934C4.05402 3.90804 4.43555 3.75 4.83337 3.75H19.8334C20.2312 3.75 20.6127 3.90804 20.894 4.18934C21.1753 4.47064 21.3334 4.85218 21.3334 5.25ZM19.8334 5.25H4.83337V10.5C4.83337 13.9969 6.129 16.8291 8.68369 18.9197C9.77142 19.8093 11.0067 20.5013 12.3334 20.9644C13.6777 20.4931 14.9284 19.7886 16.0281 18.8831C18.5527 16.7962 19.8334 13.9753 19.8334 10.5V5.25Z" fill="#D9B01A"/>
</svg>
